<mxfile host="app.diagrams.net" modified="2023-09-09T23:28:32.073Z" agent="Mozilla/5.0 (Windows NT 10.0; Win64; x64) AppleWebKit/537.36 (KHTML, like Gecko) Chrome/114.0.0.0 Safari/537.36 OPR/100.0.0.0" etag="3zHAdLOE7zux4KKhv4WH" version="21.7.2" type="github">
  <diagram name="Page-1" id="k7Qf3rfxp0l8belNccaL">
    <mxGraphModel dx="843" dy="489" grid="1" gridSize="10" guides="1" tooltips="1" connect="1" arrows="1" fold="1" page="1" pageScale="1" pageWidth="827" pageHeight="1169" math="0" shadow="0">
      <root>
        <mxCell id="0" />
        <mxCell id="1" parent="0" />
        <mxCell id="1wXaXJJ_uJc2HrgggwH0-6" style="edgeStyle=orthogonalEdgeStyle;rounded=0;orthogonalLoop=1;jettySize=auto;html=1;entryX=0.5;entryY=0;entryDx=0;entryDy=0;" edge="1" parent="1" source="1wXaXJJ_uJc2HrgggwH0-1" target="1wXaXJJ_uJc2HrgggwH0-2">
          <mxGeometry relative="1" as="geometry" />
        </mxCell>
        <mxCell id="1wXaXJJ_uJc2HrgggwH0-1" value="void Kit(void)" style="ellipse;whiteSpace=wrap;html=1;" vertex="1" parent="1">
          <mxGeometry x="320" y="40" width="120" height="40" as="geometry" />
        </mxCell>
        <mxCell id="1wXaXJJ_uJc2HrgggwH0-4" style="edgeStyle=orthogonalEdgeStyle;rounded=0;orthogonalLoop=1;jettySize=auto;html=1;entryX=0.5;entryY=0;entryDx=0;entryDy=0;" edge="1" parent="1" source="1wXaXJJ_uJc2HrgggwH0-2" target="1wXaXJJ_uJc2HrgggwH0-3">
          <mxGeometry relative="1" as="geometry" />
        </mxCell>
        <mxCell id="1wXaXJJ_uJc2HrgggwH0-5" value="True" style="edgeLabel;html=1;align=center;verticalAlign=middle;resizable=0;points=[];" vertex="1" connectable="0" parent="1wXaXJJ_uJc2HrgggwH0-4">
          <mxGeometry x="-0.0402" y="-1" relative="1" as="geometry">
            <mxPoint as="offset" />
          </mxGeometry>
        </mxCell>
        <mxCell id="1wXaXJJ_uJc2HrgggwH0-7" style="edgeStyle=orthogonalEdgeStyle;rounded=0;orthogonalLoop=1;jettySize=auto;html=1;" edge="1" parent="1" source="1wXaXJJ_uJc2HrgggwH0-2" target="1wXaXJJ_uJc2HrgggwH0-9">
          <mxGeometry relative="1" as="geometry">
            <mxPoint x="520" y="240" as="targetPoint" />
          </mxGeometry>
        </mxCell>
        <mxCell id="1wXaXJJ_uJc2HrgggwH0-8" value="False" style="edgeLabel;html=1;align=center;verticalAlign=middle;resizable=0;points=[];" vertex="1" connectable="0" parent="1wXaXJJ_uJc2HrgggwH0-7">
          <mxGeometry x="0.5255" y="3" relative="1" as="geometry">
            <mxPoint as="offset" />
          </mxGeometry>
        </mxCell>
        <mxCell id="1wXaXJJ_uJc2HrgggwH0-2" value="if (sentido==1)" style="rhombus;whiteSpace=wrap;html=1;" vertex="1" parent="1">
          <mxGeometry x="330" y="110" width="100" height="80" as="geometry" />
        </mxCell>
        <mxCell id="1wXaXJJ_uJc2HrgggwH0-3" value="izquierda();" style="rounded=1;whiteSpace=wrap;html=1;" vertex="1" parent="1">
          <mxGeometry x="320" y="240" width="120" height="60" as="geometry" />
        </mxCell>
        <mxCell id="1wXaXJJ_uJc2HrgggwH0-11" style="edgeStyle=orthogonalEdgeStyle;rounded=0;orthogonalLoop=1;jettySize=auto;html=1;" edge="1" parent="1" source="1wXaXJJ_uJc2HrgggwH0-9">
          <mxGeometry relative="1" as="geometry">
            <mxPoint x="535" y="370.0000000000001" as="targetPoint" />
          </mxGeometry>
        </mxCell>
        <mxCell id="1wXaXJJ_uJc2HrgggwH0-12" value="True" style="edgeLabel;html=1;align=center;verticalAlign=middle;resizable=0;points=[];" vertex="1" connectable="0" parent="1wXaXJJ_uJc2HrgggwH0-11">
          <mxGeometry x="-0.1665" y="-4" relative="1" as="geometry">
            <mxPoint as="offset" />
          </mxGeometry>
        </mxCell>
        <mxCell id="1wXaXJJ_uJc2HrgggwH0-20" style="edgeStyle=orthogonalEdgeStyle;rounded=0;orthogonalLoop=1;jettySize=auto;html=1;exitX=1;exitY=0.5;exitDx=0;exitDy=0;" edge="1" parent="1" source="1wXaXJJ_uJc2HrgggwH0-9">
          <mxGeometry relative="1" as="geometry">
            <mxPoint x="480" y="40" as="targetPoint" />
            <Array as="points">
              <mxPoint x="610" y="270" />
              <mxPoint x="610" y="110" />
              <mxPoint x="481" y="110" />
              <mxPoint x="481" y="40" />
            </Array>
          </mxGeometry>
        </mxCell>
        <mxCell id="1wXaXJJ_uJc2HrgggwH0-9" value="if (sentido==0)" style="rhombus;whiteSpace=wrap;html=1;" vertex="1" parent="1">
          <mxGeometry x="480" y="230" width="110" height="80" as="geometry" />
        </mxCell>
        <mxCell id="1wXaXJJ_uJc2HrgggwH0-15" value="derecha();" style="rounded=1;whiteSpace=wrap;html=1;" vertex="1" parent="1">
          <mxGeometry x="475" y="370" width="120" height="60" as="geometry" />
        </mxCell>
        <mxCell id="1wXaXJJ_uJc2HrgggwH0-19" value="" style="endArrow=classic;html=1;rounded=0;" edge="1" parent="1">
          <mxGeometry width="50" height="50" relative="1" as="geometry">
            <mxPoint x="410" y="250" as="sourcePoint" />
            <mxPoint x="460" y="200" as="targetPoint" />
          </mxGeometry>
        </mxCell>
      </root>
    </mxGraphModel>
  </diagram>
</mxfile>
